PathFileType	4	(X/Y/Z)	c:/Users/goper/Files/vsCode/490R/osim_files/C15/C15_Slow_06.trc
DataRate	CameraRate	NumFrames	NumMarkers	Units                	OrigDataRate	OrigDataStartFrame	OrigNumFrames
250.00	250.00	8	36	mm	250.0	2466	2818
                Frame#	Time	LPSIS			LASIS			LTH1			LTH2			LTH3			LTH4			LLFE			LMFE			LSH1			LSH2			LSH3			LSH4			LLMAL			LMMAL			LCAL			LMTP5			LTOE			LMTP1			RPSIS			RASIS			RTH1			RTH2			RTH3			RTH4			RLFE			RMFE			RSH1			RSH2			RSH3			RSH4			RLMAL			RMMAL			RCAL			RMTP1			RTOE			RMTP5		
		X1	Y1	Z1	X2	Y2	Z2	X3	Y3	Z3	X4	Y4	Z4	X5	Y5	Z5	X6	Y6	Z6	X7	Y7	Z7	X8	Y8	Z8	X9	Y9	Z9	X10	Y10	Z10	X11	Y11	Z11	X12	Y12	Z12	X13	Y13	Z13	X14	Y14	Z14	X15	Y15	Z15	X16	Y16	Z16	X17	Y17	Z17	X18	Y18	Z18	X19	Y19	Z19	X20	Y20	Z20	X21	Y21	Z21	X22	Y22	Z22	X23	Y23	Z23	X24	Y24	Z24	X25	Y25	Z25	X26	Y26	Z26	X27	Y27	Z27	X28	Y28	Z28	X29	Y29	Z29	X30	Y30	Z30	X31	Y31	Z31	X32	Y32	Z32	X33	Y33	Z33	X34	Y34	Z34	X35	Y35	Z35	X36	Y36	Z36

2466	9.86000	0.00000	0.00000	0.00000	-3579.11060	1015.22827	322.79926	-3528.36841	618.10876	374.73715	0.00000	0.00000	0.00000	-3577.23413	629.84894	367.98840	-3583.26294	586.31262	356.96713	-3547.26465	501.04831	333.46722	0.00000	0.00000	0.00000	-3479.64380	397.78726	346.11020	-3471.95532	351.71402	346.17865	-3537.71851	385.51544	340.55234	-3525.50220	341.91925	343.42151	0.00000	0.00000	0.00000	-3477.80566	122.14115	185.97217	0.00000	0.00000	0.00000	-3572.25659	52.94273	300.70959	-3631.32642	73.57088	241.03029	-3596.61011	48.05218	181.16895	0.00000	0.00000	0.00000	-3559.55273	1011.86664	75.17560	0.00000	0.00000	0.00000	0.00000	0.00000	0.00000	-3675.47241	679.47205	0.71115	-3687.89722	632.98181	1.50019	-3677.49585	533.27142	18.74468	-3681.29468	512.87061	141.05380	0.00000	0.00000	0.00000	0.00000	0.00000	0.00000	0.00000	0.00000	0.00000	-3576.65552	422.56107	6.33151	0.00000	0.00000	0.00000	-3449.57812	227.75385	157.70657	-3341.67163	252.17250	137.86119	-3484.53589	104.26084	146.44495	-3516.03711	99.27464	87.89280	-3440.89697	115.43863	38.59005
2467	9.86400	-3415.69092	1032.21277	266.84717	-3581.90161	1015.28613	322.98828	-3529.74219	618.27203	374.67123	0.00000	0.00000	0.00000	-3578.70337	629.87982	367.94272	-3584.51270	586.23627	356.93988	-3548.08447	501.05722	333.49634	0.00000	0.00000	0.00000	-3479.92725	397.85629	345.96390	-3472.21729	351.85260	346.05066	-3538.69067	385.71140	340.79654	-3525.80322	341.94351	343.45032	0.00000	0.00000	0.00000	-3477.91333	122.18506	185.93558	0.00000	0.00000	0.00000	-3572.25781	52.92350	300.74490	-3631.37915	73.52192	241.04738	-3596.63281	48.04645	181.16028	0.00000	0.00000	0.00000	-3562.89111	1012.23932	75.30595	0.00000	0.00000	0.00000	0.00000	0.00000	0.00000	-3680.21362	680.71112	1.00359	-3692.92529	634.30194	1.83854	-3682.76978	534.41760	19.12582	-3686.40039	514.02942	141.33710	0.00000	0.00000	0.00000	0.00000	0.00000	0.00000	0.00000	0.00000	0.00000	-3583.10742	422.43008	6.43098	0.00000	0.00000	0.00000	-3459.66699	225.09718	157.22862	-3349.86279	246.27840	139.24953	-3496.78052	102.47598	145.36673	-3528.56030	98.53086	86.73974	-3453.04614	113.13038	37.44381
2468	9.86800	0.00000	0.00000	0.00000	-3584.60815	1015.31134	323.14508	-3530.98926	618.32141	374.59323	0.00000	0.00000	0.00000	-3579.97559	629.76495	367.90213	-3585.72144	586.14142	356.90900	-3548.90625	501.02039	333.53229	0.00000	0.00000	0.00000	-3480.39307	397.98883	345.80539	-3473.76367	351.89969	346.89804	-3539.03101	385.21570	340.71942	-3526.09375	341.96521	343.46939	0.00000	0.00000	0.00000	-3478.05615	122.24596	185.88237	0.00000	0.00000	0.00000	-3572.25952	52.91715	300.76611	-3631.39673	73.45073	241.08452	-3596.64893	48.05079	181.17987	0.00000	0.00000	0.00000	-3566.24561	1012.62830	75.40284	-3632.25513	662.03333	-10.08916	0.00000	0.00000	0.00000	-3684.97290	681.91418	1.30893	-3697.84424	635.55682	2.18955	-3688.03613	535.53668	19.52792	-3691.36987	515.03699	141.60538	0.00000	0.00000	0.00000	0.00000	0.00000	0.00000	0.00000	0.00000	0.00000	-3589.47852	422.20502	6.48225	0.00000	0.00000	0.00000	-3469.39038	222.49562	156.67001	-3359.45605	242.56410	137.40115	-3509.34790	100.79128	144.16858	-3541.16113	97.77934	85.59659	-3465.42456	110.85559	36.25473
2469	9.87200	-3421.20923	1032.49426	266.24954	-3587.34009	1015.33435	323.30768	-3532.34692	618.45306	374.51663	0.00000	0.00000	0.00000	-3581.38721	629.68347	367.83200	-3586.95703	586.06256	356.88977	-3549.78662	500.99533	333.55002	0.00000	0.00000	0.00000	-3480.97632	398.17667	345.73477	-3474.10913	352.03076	346.82620	-3539.50806	385.23746	340.77628	-3526.48999	341.99203	343.51749	0.00000	0.00000	0.00000	-3478.17529	122.31175	185.83052	0.00000	0.00000	0.00000	-3572.24561	52.89225	300.80502	-3631.40454	73.38373	241.12108	-3596.65503	48.03554	181.18367	0.00000	0.00000	0.00000	-3569.60229	1012.97235	75.50512	-3636.87769	662.80334	-9.96498	0.00000	0.00000	0.00000	-3689.58984	683.02216	1.63599	-3702.51807	636.96301	2.42884	-3693.14771	536.57080	19.94863	-3696.17041	515.97498	141.85265	0.00000	0.00000	0.00000	0.00000	0.00000	0.00000	0.00000	0.00000	0.00000	-3595.86938	422.00415	6.56695	0.00000	0.00000	0.00000	-3479.19971	219.74274	156.05020	-3369.02075	237.46474	137.17824	-3521.85083	98.91623	142.99017	-3553.77393	96.95871	84.47762	-3477.84253	108.52381	35.08846
2470	9.87600	-3424.00854	1032.55530	266.01840	-3590.10791	1015.35358	323.48184	-3533.75488	618.56622	374.48331	0.00000	0.00000	0.00000	-3582.82080	629.66962	367.73904	-3588.16943	585.95856	356.84244	-3550.65527	500.98679	333.57846	0.00000	0.00000	0.00000	-3481.47314	398.26389	345.64899	-3474.49609	352.13168	346.72678	-3540.02148	385.21219	340.80737	-3526.87183	342.02454	343.52682	0.00000	0.00000	0.00000	-3478.26025	122.36672	185.81804	0.00000	0.00000	0.00000	-3572.24609	52.90367	300.83603	-3631.41602	73.34676	241.14734	-3596.65479	48.03144	181.19656	0.00000	0.00000	0.00000	-3572.92114	1013.29382	75.58028	-3641.47681	663.55615	-9.79908	0.00000	0.00000	0.00000	-3694.14014	684.08081	1.93663	-3707.25391	637.97485	2.90293	-3698.14062	537.55072	20.37943	-3701.12793	516.94287	142.17946	0.00000	0.00000	0.00000	0.00000	0.00000	0.00000	0.00000	0.00000	0.00000	-3602.04419	421.59177	6.62407	0.00000	0.00000	0.00000	-3489.08984	216.79266	155.41632	-3379.02368	233.20886	135.88632	-3534.38672	97.00233	141.84903	-3566.50146	96.18649	83.32160	-3490.35767	106.18924	33.92380
2471	9.88000	0.00000	0.00000	0.00000	-3592.80078	1015.35120	323.58133	-3535.09644	618.68219	374.42615	0.00000	0.00000	0.00000	-3584.14233	629.53143	367.66870	-3589.42578	585.87195	356.77731	-3551.52661	500.99142	333.60138	0.00000	0.00000	0.00000	-3481.95288	398.36652	345.58627	-3474.91431	352.25308	346.67319	-3540.61768	385.23053	340.82150	-3527.36694	342.08060	343.52795	0.00000	0.00000	0.00000	-3480.67090	123.58073	185.85361	0.00000	0.00000	0.00000	-3572.23511	52.90647	300.85156	-3631.42847	73.31091	241.15620	-3596.62085	48.02950	181.21786	0.00000	0.00000	0.00000	-3576.29077	1013.62714	75.68529	0.00000	0.00000	0.00000	0.00000	0.00000	0.00000	-3698.53662	685.48151	1.92636	-3711.90747	639.08215	3.18092	-3703.02197	538.51031	20.80692	-3705.91040	517.83221	142.45573	0.00000	0.00000	0.00000	0.00000	0.00000	0.00000	0.00000	0.00000	0.00000	-3608.36401	421.23096	6.64445	0.00000	0.00000	0.00000	-3499.14551	213.72354	154.73633	0.00000	0.00000	0.00000	-3547.11011	95.18872	140.60573	-3579.21655	95.30602	82.14498	-3501.33179	102.75198	33.33349
2472	9.88400	0.00000	0.00000	0.00000	-3595.62329	1015.38409	323.72870	-3536.52563	618.82452	374.32285	0.00000	0.00000	0.00000	-3585.56030	629.49652	367.53864	-3590.71802	585.82031	356.71210	-3552.40234	500.92850	333.59235	0.00000	0.00000	0.00000	-3482.58691	398.51462	345.56125	-3475.38867	352.34836	346.62305	-3541.08032	385.17847	340.80115	-3527.79956	342.03864	343.51019	0.00000	0.00000	0.00000	0.00000	0.00000	0.00000	0.00000	0.00000	0.00000	-3572.21484	52.91427	300.87372	-3631.43408	73.28709	241.16959	-3596.64136	48.04886	181.20583	0.00000	0.00000	0.00000	-3579.62231	1013.90973	75.76993	0.00000	0.00000	0.00000	0.00000	0.00000	0.00000	-3702.91235	686.21997	2.59467	-3716.51514	640.14343	3.63630	-3707.83911	539.40411	21.25081	-3710.62402	518.63745	142.72414	0.00000	0.00000	0.00000	-751.99469	734.83685	2361.60107	0.00000	0.00000	0.00000	0.00000	0.00000	0.00000	0.00000	0.00000	0.00000	-3509.40771	210.56953	154.03461	0.00000	0.00000	0.00000	-3559.95703	93.33394	139.31725	-3592.08887	94.52172	80.87614	-3513.95605	100.34307	32.12154
2473	9.88800	0.00000	0.00000	0.00000	-3598.29346	1015.32391	323.80496	-3537.90503	618.94812	374.26575	0.00000	0.00000	0.00000	-3586.98853	629.44781	367.40759	-3591.92407	585.69409	356.61697	-3553.29126	500.96051	333.61169	0.00000	0.00000	0.00000	-3483.25757	398.66467	345.54431	-3475.82715	352.38754	346.59103	-3541.66284	385.17456	340.80075	-3528.31567	342.05191	343.49911	0.00000	0.00000	0.00000	0.00000	0.00000	0.00000	0.00000	0.00000	0.00000	-3572.21899	52.92527	300.88562	-3631.46167	73.28075	241.17239	-3596.64209	48.07607	181.19438	0.00000	0.00000	0.00000	-3583.03784	1014.19470	75.81042	0.00000	0.00000	0.00000	0.00000	0.00000	0.00000	-3707.22681	687.31891	2.46767	-3720.93823	641.07324	3.97661	-3712.58765	540.24725	21.68354	-3715.20703	519.35358	143.02290	0.00000	0.00000	0.00000	-751.98004	734.78668	2361.58813	0.00000	0.00000	0.00000	0.00000	0.00000	0.00000	0.00000	0.00000	0.00000	-3519.75293	207.36137	153.35370	0.00000	0.00000	0.00000	-3572.91309	91.44791	138.06955	-3604.91553	93.63206	79.65085	-3526.69556	97.93191	30.88587
